<?xml version="1.0" encoding="UTF-8" standalone="no"?>
<svg
   xmlns:dc="http://purl.org/dc/elements/1.1/"
   xmlns:cc="http://creativecommons.org/ns#"
   xmlns:rdf="http://www.w3.org/1999/02/22-rdf-syntax-ns#"
   xmlns:svg="http://www.w3.org/2000/svg"
   xmlns="http://www.w3.org/2000/svg"
   xmlns:sodipodi="http://sodipodi.sourceforge.net/DTD/sodipodi-0.dtd"
   xmlns:inkscape="http://www.inkscape.org/namespaces/inkscape"
   xml:space="preserve"
   viewBox="-79 80.3 19 19"
   y="0px"
   x="0px"
   id="svg3470"
   version="1.1"
   inkscape:version="0.91 r13725"
   sodipodi:docname="icon19.svg"
   width="19"
   height="19"
   inkscape:export-filename="/Users/ajsb85/vinco/vo-coffee/data/icon19.png"
   inkscape:export-xdpi="90"
   inkscape:export-ydpi="90"><sodipodi:namedview
     pagecolor="#ffffff"
     bordercolor="#666666"
     borderopacity="1"
     objecttolerance="10"
     gridtolerance="10"
     guidetolerance="10"
     inkscape:pageopacity="0"
     inkscape:pageshadow="2"
     inkscape:window-width="1064"
     inkscape:window-height="729"
     id="namedview6003"
     showgrid="false"
     inkscape:zoom="2.6019847"
     inkscape:cx="45.349998"
     inkscape:cy="45.349998"
     inkscape:window-x="197"
     inkscape:window-y="55"
     inkscape:window-maximized="0"
     inkscape:current-layer="svg3470" /><metadata
     id="metadata22"><rdf:RDF><cc:Work
         rdf:about=""><dc:format>image/svg+xml</dc:format><dc:type
           rdf:resource="http://purl.org/dc/dcmitype/StillImage" /><dc:title /></cc:Work></rdf:RDF></metadata><defs
     id="defs20" /><style
     id="style3"
     type="text/css">
	.st0{fill:#4D4D4D;}
</style><g
     id="g6"
     style="fill:#4d4d4d;fill-opacity:1"
     transform="matrix(0.21181717,0,0,0.21181717,-62.414716,63.185176)"><path
       id="path8"
       d="m 8.5,123.2 -0.5,-0.9 -1.3,-1.6 -1.6,-1.4 -1.9,-1.1 -1.1,-0.4 -0.9,-0.3 -1.9,-0.3 -1,0 0,0 0,0 -0.6,0 -1.3,0.1 -1.8,0.4 -2.3,0.9 -2.1,1.3 -1,0.8 -0.9,0.8 -1.7,1.9 -1.5,2.2 -1.2,2.4 -0.5,1.3 -0.3,0.9 0,0 -0.4,1.4 -0.4,2.9 0,1.4 0,0.1 0,0.1 0,1.1 0.3,2.1 0.5,2 0.7,1.9 0.5,0.9 0.5,0.9 1.3,1.6 1.6,1.4 1.9,1.1 1,0.4 0.2,-0.6 -0.2,0.6 0.9,0.3 1.9,0.3 0.9,0 0,0 0,0 0,0 0.6,0 1.2,-0.1 1.8,-0.4 2.3,-0.9 2.1,-1.3 1,-0.8 0.9,-0.8 1.7,-1.9 1.5,-2.2 1.2,-2.4 0.5,-1.3 0,0 0,0 0.3,-0.8 0.4,-1.7 0.3,-1.6 0.1,-1.6 0,-0.8 0,-0.2 0,-1.1 -0.2,-2.1 -0.5,-2 -0.5,-2 -0.5,-0.9 0,0 z m -20.6,12.8 0,-1.3 0.4,-2.6 0.4,-1.3 0,0 0,0 0,0 0.4,-1 1,-1.9 1.1,-1.7 1.3,-1.4 0.7,-0.6 0.7,-0.5 1.3,-0.8 1.3,-0.5 1.2,-0.3 0.6,0 0.1,0 0.4,0 0.8,0.1 0.4,0.1 0.5,0.2 0.9,0.5 0.9,0.8 0.8,0.9 0.4,0.6 0.3,0.6 0.5,1.3 0.4,1.5 0.2,1.6 0,0.8 0,0.2 0,1.2 -0.4,2.6 -0.4,1.3 0,0 0,0 0,0 -0.4,1 -1,1.9 -1.1,1.6 -1.2,1.4 -0.7,0.6 -0.7,0.5 -1.3,0.8 -1.3,0.5 -1.2,0.3 -0.6,0 -0.1,0 -0.4,0 -1.1,0 -0.4,-0.1 -0.5,-0.2 -0.9,-0.5 -0.9,-0.8 -0.8,-1 -0.4,-0.6 -0.3,-0.6 -0.5,-1.3 -0.4,-1.5 -0.2,-1.6 0,-0.8 0,0 -0.7,0 0.9,0 0,0 z"
       class="st0"
       style="fill:#4d4d4d;fill-opacity:1"
       inkscape:connector-curvature="0" /><polygon
       id="polygon10"
       points="-70.5,118.9 -70.2,124.1 -69.9,127.5 -69.5,130.7 -68.9,133.9 -68.1,137 -67.2,140 -66.6,141.4 -66.1,142.9 -64.7,145.6 -63.2,148.3 -61.4,150.9 -60.5,152.2 -11.3,152.2 -10.2,150.8 -8.3,148 -6.6,145.2 -5.2,142.3 -4.7,140.8 -4.7,140.8 -4.1,139.4 -3.2,136.5 -2.5,133.5 -2,130.4 -1.6,127.2 -1.3,124 -1.1,118.8 -1.1,115.2 -1.1,114.9 -1.4,114.2 -1.6,114 -1.9,113.7 -2.5,113.5 -2.9,113.5 -68.7,113.5 -69.1,113.5 -69.7,113.7 -70,114 -70.2,114.2 -70.5,114.9 -70.5,115.2 "
       class="st0"
       style="fill:#4d4d4d;fill-opacity:1" /><polygon
       id="polygon12"
       points="-66.4,166.8 -64.9,167.5 -63.1,168.2 -61.1,168.9 -58.8,169.4 -54.9,170.1 -51.7,170.5 -51.5,170.5 -19.8,170.5 -19.6,170.5 -16.5,170 -11.4,169 -8.4,168 -6.7,167.4 -5.1,166.6 -3.7,165.8 -3.1,165.4 -1.9,164.5 0.1,162.7 2.9,159.6 5.2,157.4 5.4,157.2 5.7,156.8 5.8,156.2 5.7,155.7 5.6,155.5 5.6,155.5 5.5,155.2 5.2,154.8 4.7,154.5 4.2,154.4 3.9,154.3 -75.3,154.3 -75.6,154.4 -76.1,154.5 -76.5,154.8 -76.9,155.2 -77,155.4 -77.1,155.7 -77.1,156.2 -77,156.7 -76.8,157.2 -76.6,157.4 -74.4,159.6 -71.7,162.7 -69.6,164.7 -68.5,165.5 -67.8,166 "
       class="st0"
       style="fill:#4d4d4d;fill-opacity:1" /><polygon
       id="polygon14"
       points="-44.2,83.5 -44.5,82.8 -44.5,82.2 -44.2,81.5 -44,81.2 -43.7,81 -43,80.8 -42.3,80.8 -41.7,81 -41.4,81.3 -40.3,82.4 -38.8,84.5 -37.9,86 -37.6,87 -37.3,88 -37.2,89 -37.2,89.5 -37.2,90.4 -37.6,92.1 -38.4,93.6 -39.3,94.9 -39.8,95.5 -40.8,96.7 -42.6,98.9 -43.3,99.9 -43.7,100.6 -44.1,101.9 -44.1,102.6 -44.1,103.1 -43.8,104.3 -43.2,105.6 -42.1,107.2 -41.3,108.2 -41.1,108.4 -40.9,109.1 -40.9,109.8 -41.2,110.4 -41.5,110.7 -41.8,110.9 -42.4,111.1 -42.7,111.1 -43.1,111.1 -43.8,110.8 -44.1,110.5 -44.1,110.5 -44.1,110.5 -45,109.4 -46.4,107.4 -47.3,105.4 -47.7,103.5 -47.8,102.6 -47.7,101.7 -47.3,99.9 -46.6,98.4 -45.7,97 -45.2,96.4 -44.2,95.2 -42.3,93 -41.6,92 -41.2,91.3 -40.8,90.1 -40.8,89.5 -40.8,89 -41.1,87.8 -41.8,86.4 -43.1,84.7 -44,83.8 "
       class="st0"
       style="fill:#4d4d4d;fill-opacity:1" /><polygon
       id="polygon16"
       points="-36.1,83.9 -36.3,83.2 -36.3,82.6 -36,81.9 -35.8,81.6 -35.5,81.4 -34.9,81.2 -34.1,81.2 -33.5,81.4 -33.2,81.7 -32.2,82.8 -30.6,84.9 -29.8,86.4 -29.4,87.4 -29.1,88.4 -29,89.4 -29,89.9 -29,90.8 -29.5,92.5 -30.2,94 -31.1,95.3 -31.6,95.9 -32.6,97.1 -34.5,99.3 -35.1,100.3 -35.5,101 -35.9,102.3 -36,103 -36,103.5 -35.7,104.7 -35,106 -33.9,107.6 -33.2,108.6 -32.9,108.8 -32.7,109.5 -32.8,110.2 -33.1,110.8 -33.3,111.1 -33.6,111.3 -34.2,111.5 -34.5,111.5 -34.9,111.5 -35.6,111.2 -35.9,110.9 -35.9,110.9 -36.8,109.8 -38.2,107.8 -39.1,105.8 -39.6,103.9 -39.6,103 -39.6,102.1 -39.2,100.3 -38.4,98.8 -37.5,97.4 -37,96.8 -36,95.6 -34.1,93.4 -33.5,92.4 -33.1,91.7 -32.7,90.5 -32.6,89.9 -32.6,89.4 -32.9,88.2 -33.7,86.8 -34.9,85.1 -35.9,84.1 "
       class="st0"
       style="fill:#4d4d4d;fill-opacity:1" /><polygon
       id="polygon18"
       points="-27.1,83.9 -27.4,83.2 -27.4,82.6 -27.1,81.9 -26.8,81.6 -26.5,81.4 -25.9,81.2 -25.2,81.2 -24.5,81.4 -24.3,81.7 -23.2,82.8 -21.6,84.9 -20.8,86.4 -20.4,87.4 -20.2,88.4 -20,89.4 -20,89.9 -20.1,90.8 -20.5,92.5 -21.2,94 -22.1,95.3 -22.6,95.9 -23.6,97.1 -25.5,99.3 -26.2,100.3 -26.5,101 -27,102.3 -27,103 -27,103.5 -26.7,104.7 -26.1,106 -25,107.6 -24.2,108.6 -24,108.8 -23.7,109.5 -23.8,110.2 -24.1,110.8 -24.4,111.1 -24.6,111.3 -25.2,111.5 -25.6,111.5 -25.9,111.5 -26.6,111.2 -26.9,110.9 -26.9,110.9 -27.8,109.8 -29.2,107.8 -30.2,105.8 -30.6,103.9 -30.6,103 -30.6,102.1 -30.2,100.3 -29.4,98.8 -28.5,97.4 -28,96.8 -27,95.6 -25.2,93.4 -24.5,92.4 -24.1,91.7 -23.7,90.5 -23.6,89.9 -23.7,89.4 -24,88.2 -24.7,86.8 -26,85.1 -26.9,84.1 "
       class="st0"
       style="fill:#4d4d4d;fill-opacity:1" /></g></svg>