<?xml version="1.0" encoding="UTF-8" standalone="no"?>
<svg
   xmlns:dc="http://purl.org/dc/elements/1.1/"
   xmlns:cc="http://creativecommons.org/ns#"
   xmlns:rdf="http://www.w3.org/1999/02/22-rdf-syntax-ns#"
   xmlns:svg="http://www.w3.org/2000/svg"
   xmlns="http://www.w3.org/2000/svg"
   height="16"
   width="16"
   version="1.1"
   id="svg3470"
   x="0px"
   y="0px"
   viewBox="-101 103.6 15.999999 15.999999"
   xml:space="preserve"><metadata
     id="metadata22"><rdf:RDF><cc:Work
         rdf:about=""><dc:format>image/svg+xml</dc:format><dc:type
           rdf:resource="http://purl.org/dc/dcmitype/StillImage" /><dc:title></dc:title></cc:Work></rdf:RDF></metadata><defs
     id="defs20" /><style
     type="text/css"
     id="style3">
	.st0{fill:#FFFFFF;}
</style><g
     transform="matrix(0.35398226,0,0,0.35398226,-65.194694,66.927436)"
     id="g6"><path
       style="fill:#ffffff"
       class="st0"
       d="m -57.4,124.9 -0.3,-0.4 -0.7,-0.8 -0.8,-0.7 -0.9,-0.6 -0.5,-0.2 -0.5,-0.2 -0.9,-0.2 -0.5,0 0,0 0,0 -0.3,0 -0.6,0.1 -0.9,0.2 -1.2,0.5 -1.1,0.7 -0.5,0.4 -0.5,0.4 -0.9,1 -0.7,1.1 -0.6,1.2 -0.2,0.7 -0.2,0.4 0,0 -0.2,0.7 -0.2,1.4 0,0.7 0,0 0,0 0,0.5 0.1,1.1 0.2,1 0.4,0.9 0.2,0.4 0.3,0.4 0.7,0.8 0.8,0.7 0.9,0.6 0.5,0.2 0.1,-0.3 -0.1,0.3 0.5,0.2 0.9,0.2 0.5,0 0,0 0,0 0,0 0.3,0 0.6,-0.1 0.9,-0.2 1.1,-0.5 1.1,-0.7 0.5,-0.4 0.5,-0.4 0.9,-1 0.7,-1.1 0.6,-1.2 0.2,-0.7 0,0 0,0 0.1,-0.4 0.2,-0.8 0.2,-0.8 0.1,-0.8 0,-0.4 0,-0.1 0,-0.5 -0.1,-1.1 -0.2,-1 -0.4,-1 -0.1,-0.2 0,0 z m -10.4,6.5 0,-0.6 0.2,-1.3 0.2,-0.7 0,0 0,0 0,0 0.2,-0.5 0.5,-0.9 0.6,-0.8 0.6,-0.7 0.3,-0.3 0.3,-0.3 0.7,-0.4 0.7,-0.3 0.6,-0.1 0.3,0 0,0 0.2,0 0.4,0.1 0.2,0.1 0.2,0.1 0.4,0.3 0.4,0.4 0.4,0.5 0.2,0.3 0.2,0.3 0.3,0.7 0.2,0.7 0.1,0.8 0,0.4 0,0.1 0,0.6 -0.2,1.3 -0.2,0.7 0,0 0,0 0,0 -0.2,0.5 -0.5,1 -0.6,0.8 -0.6,0.7 -0.3,0.3 -0.3,0.3 -0.7,0.4 -0.7,0.3 -0.6,0.1 -0.3,0 0,0 -0.2,0 -0.4,-0.1 -0.2,-0.1 -0.2,-0.1 -0.4,-0.3 -0.4,-0.4 -0.4,-0.5 -0.2,-0.3 -0.2,-0.3 -0.3,-0.7 -0.2,-0.7 -0.1,-0.8 0,-0.6 0,0 -0.3,0 0.3,0 0,0 z"
       id="path8" /><polygon
       style="fill:#ffffff"
       class="st0"
       points="-62.3,120.7 -62.4,120.4 -62.5,120.3 -62.6,120.2 -63,120 -63.2,120 -96.3,120 -96.5,120 -96.8,120.2 -97,120.3 -97.1,120.4 -97.2,120.7 -97.2,120.9 -97.2,122.7 -97.1,125.4 -96.9,127.1 -96.7,128.7 -96.4,130.3 -96,131.9 -95.5,133.4 -95.2,134.1 -95,134.8 -94.3,136.2 -93.5,137.6 -92.6,138.9 -92.2,139.5 -67.4,139.5 -66.8,138.8 -65.9,137.4 -65,136 -64.3,134.6 -64,133.8 -64,133.8 -63.8,133.1 -63.3,131.6 -63,130.1 -62.7,128.6 -62.5,127 -62.4,125.3 -62.3,122.7 -62.2,120.9 "
       id="polygon10" /><polygon
       style="fill:#ffffff"
       class="st0"
       points="-100.2,140.9 -100.4,141.1 -100.5,141.2 -100.5,141.3 -100.5,141.6 -100.5,141.8 -100.4,142 -100.3,142.2 -99.2,143.3 -97.8,144.8 -96.8,145.8 -96.2,146.3 -95.9,146.5 -95.2,146.9 -94.4,147.3 -93.5,147.6 -92.5,147.9 -91.3,148.2 -89.3,148.6 -87.8,148.8 -87.7,148.8 -71.7,148.8 -71.5,148.8 -70,148.5 -67.4,148 -65.9,147.5 -65.1,147.2 -64.3,146.8 -63.6,146.4 -63.3,146.2 -62.7,145.8 -61.6,144.8 -60.2,143.3 -59.1,142.2 -59,142.1 -58.8,141.8 -58.8,141.6 -58.8,141.3 -58.9,141.2 -58.9,141.2 -58.9,141.1 -59.1,140.9 -59.3,140.7 -59.6,140.6 -59.7,140.6 -99.6,140.6 -99.8,140.6 -100,140.7 "
       id="polygon12" /><polygon
       style="fill:#ffffff"
       class="st0"
       points="-84.7,111.7 -84.4,111.4 -83.9,110.8 -83,109.7 -82.7,109.2 -82.5,108.9 -82.3,108.3 -82.2,107.9 -82.3,107.7 -82.4,107.1 -82.8,106.4 -83.4,105.5 -83.9,105.1 -84,104.9 -84.1,104.6 -84.1,104.3 -84,103.9 -83.8,103.8 -83.7,103.7 -83.4,103.6 -83,103.6 -82.7,103.7 -82.5,103.8 -82,104.4 -81.2,105.4 -80.8,106.2 -80.6,106.7 -80.5,107.2 -80.4,107.7 -80.4,107.9 -80.4,108.4 -80.6,109.3 -81,110 -81.5,110.7 -81.7,111 -82.2,111.6 -83.2,112.7 -83.5,113.2 -83.7,113.6 -83.9,114.2 -83.9,114.6 -83.9,114.8 -83.8,115.4 -83.5,116.1 -82.9,116.9 -82.5,117.4 -82.4,117.5 -82.3,117.8 -82.3,118.2 -82.5,118.5 -82.6,118.6 -82.7,118.7 -83,118.8 -83.2,118.8 -83.4,118.8 -83.7,118.7 -83.9,118.5 -83.9,118.5 -83.9,118.5 -84.3,118 -85.1,117 -85.5,116 -85.7,115 -85.8,114.6 -85.7,114.1 -85.5,113.2 -85.2,112.4 "
       id="polygon14" /><polygon
       style="fill:#ffffff"
       class="st0"
       points="-80.6,111.9 -80.3,111.6 -79.8,111 -78.9,109.9 -78.5,109.4 -78.4,109.1 -78.1,108.5 -78.1,108.1 -78.1,107.9 -78.3,107.3 -78.7,106.6 -79.3,105.7 -79.8,105.3 -79.9,105.1 -80,104.8 -80,104.5 -79.9,104.1 -79.7,104 -79.6,103.9 -79.2,103.8 -78.9,103.8 -78.6,103.9 -78.4,104 -77.9,104.6 -77.1,105.6 -76.7,106.4 -76.5,106.9 -76.4,107.4 -76.3,107.9 -76.3,108.1 -76.3,108.6 -76.5,109.5 -76.9,110.2 -77.4,110.9 -77.6,111.2 -78.1,111.8 -79,112.9 -79.4,113.4 -79.6,113.8 -79.8,114.4 -79.8,114.8 -79.8,115 -79.7,115.6 -79.3,116.3 -78.8,117.1 -78.4,117.6 -78.3,117.7 -78.2,118 -78.2,118.4 -78.4,118.7 -78.5,118.8 -78.6,118.9 -78.9,119 -79.1,119 -79.3,119 -79.6,118.9 -79.8,118.7 -79.8,118.7 -80.2,118.2 -80.9,117.2 -81.4,116.2 -81.6,115.2 -81.6,114.8 -81.6,114.3 -81.4,113.4 -81,112.6 "
       id="polygon16" /><polygon
       style="fill:#ffffff"
       class="st0"
       points="-76.1,111.9 -75.8,111.6 -75.3,111 -74.4,109.9 -74,109.4 -73.8,109.1 -73.6,108.5 -73.6,108.1 -73.6,107.9 -73.8,107.3 -74.1,106.6 -74.8,105.7 -75.2,105.3 -75.4,105.1 -75.5,104.8 -75.5,104.5 -75.3,104.1 -75.2,104 -75.1,103.9 -74.7,103.8 -74.4,103.8 -74.1,103.9 -73.9,104 -73.4,104.6 -72.6,105.6 -72.2,106.4 -72,106.9 -71.9,107.4 -71.8,107.9 -71.8,108.1 -71.8,108.6 -72,109.5 -72.4,110.2 -72.8,110.9 -73.1,111.2 -73.6,111.8 -74.5,112.9 -74.9,113.4 -75.1,113.8 -75.3,114.4 -75.3,114.8 -75.3,115 -75.1,115.6 -74.8,116.3 -74.3,117.1 -73.9,117.6 -73.8,117.7 -73.6,118 -73.7,118.4 -73.8,118.7 -74,118.8 -74.1,118.9 -74.4,119 -74.6,119 -74.8,119 -75.1,118.9 -75.3,118.7 -75.3,118.7 -75.7,118.2 -76.4,117.2 -76.9,116.2 -77.1,115.2 -77.1,114.8 -77.1,114.3 -76.9,113.4 -76.5,112.6 "
       id="polygon18" /></g></svg>