<?xml version="1.0" encoding="UTF-8" standalone="no"?>
<svg
   xmlns:dc="http://purl.org/dc/elements/1.1/"
   xmlns:cc="http://creativecommons.org/ns#"
   xmlns:rdf="http://www.w3.org/1999/02/22-rdf-syntax-ns#"
   xmlns:svg="http://www.w3.org/2000/svg"
   xmlns="http://www.w3.org/2000/svg"
   xml:space="preserve"
   style="enable-background:new -33 35.6 181.4 181.4;"
   viewBox="-33 35.6 181.4 181.4"
   y="0px"
   x="0px"
   id="svg3470"
   version="1.1"><metadata
     id="metadata22"><rdf:RDF><cc:Work
         rdf:about=""><dc:format>image/svg+xml</dc:format><dc:type
           rdf:resource="http://purl.org/dc/dcmitype/StillImage" /><dc:title></dc:title></cc:Work></rdf:RDF></metadata><defs
     id="defs20" /><style
     id="style3"
     type="text/css">
	.st0{fill:#4D4D4D;}
</style><g
     id="g6"><path
       id="path8"
       d="M142.4,121.3l-1-1.8l-2.6-3.2l-3.2-2.8l-3.7-2.2l-2.1-0.8l-1.8-0.6l-3.8-0.7l-1.9,0h-0.1h0l-1.3,0l-2.6,0.2   l-3.6,0.8l-4.6,1.8l-4.3,2.6l-2,1.6l-1.9,1.7l-3.5,3.9l-3,4.4l-2.5,4.9l-1,2.6l-0.6,1.8l0,0l-0.8,2.9l-0.9,5.8l-0.1,2.8v0.1v0.2   l0,2.2l0.5,4.2l1,4.1l1.5,3.8l0.9,1.8l1.1,1.8l2.6,3.3l3.2,2.8l3.8,2.2l2.1,0.8l0.5-1.3l-0.5,1.3l1.8,0.6l3.8,0.6l1.9,0.1h0.1h0   h0.1l1.3,0l2.5-0.2l3.7-0.8l4.6-1.8l4.3-2.6l1.9-1.6l1.9-1.7l3.5-3.8l3-4.4l2.5-4.8l1-2.6v0l0,0l0.6-1.7l0.9-3.4l0.6-3.3l0.3-3.3   l0-1.6v-0.3l0-2.2l-0.5-4.3l-1-4l-1.5-3.8L142.4,121.3L142.4,121.3z M100.8,147l0.1-2.6l0.9-5.3l0.9-2.7h0l0,0v0l0.8-2.1l1.9-3.8   l2.3-3.4l2.6-2.8l1.3-1.2l1.3-1l2.7-1.7l2.6-1l2.5-0.5l1.1,0h0.1l0.9,0l1.7,0.3l0.8,0.2l1,0.4l1.8,1.1l1.8,1.5l1.5,1.9l0.7,1.2   l0.6,1.2l1,2.7l0.8,2.9l0.4,3.2v1.7v0.3l-0.1,2.5l-0.9,5.3L133,148l0,0v0h0l-0.8,2.1l-1.9,3.8l-2.3,3.3l-2.5,2.8l-1.4,1.1l-1.3,1.1   L120,164l-2.6,1.1l-2.5,0.5l-1.1,0h-0.1l-0.9,0l-1.7-0.3l-0.9-0.3l-0.9-0.3l-1.8-1.1l-1.8-1.5l-1.5-1.9l-0.7-1.1l-0.6-1.2l-1-2.7   l-0.8-3l-0.4-3.2v-1.7V147h-1.4H100.8L100.8,147z"
       class="st0" /><polygon
       id="polygon10"
       points="115.8,156.9 116.9,154 118.7,148.1 120.1,142.1 121.2,135.9 122,129.5 122.5,122.9 123,112.5    123,105.2 123,104.5 122.4,103.2 121.9,102.7 121.4,102.2 120.1,101.7 119.4,101.6 -13.4,101.6 -14.1,101.7 -15.5,102.2 -16,102.7    -16.5,103.2 -17,104.5 -17.1,105.2 -17,112.5 -16.5,123.1 -15.8,129.9 -14.9,136.5 -13.7,142.9 -12.2,149.1 -10.3,155.1    -9.2,158.1 -8,161 -5.4,166.5 -2.3,171.9 1.3,177.2 3.2,179.7 102.5,179.7 104.7,176.9 108.5,171.4 111.8,165.7 114.6,159.9    115.8,156.9  "
       class="st0" /><polygon
       id="polygon12"
       points="136.6,186.4 136.3,185.9 135.7,185.1 134.8,184.5 133.7,184.2 133.2,184.1 -26.7,184.1 -27.2,184.2    -28.3,184.4 -29.2,185.1 -29.8,185.9 -30.1,186.3 -30.3,186.9 -30.3,187.9 -30.2,188.9 -29.6,189.8 -29.3,190.3 -24.9,194.8    -19.4,201 -15.3,204.9 -12.9,206.7 -11.6,207.6 -8.8,209.3 -5.6,210.7 -2.1,212.1 2,213.4 6.6,214.5 14.5,216 20.8,216.7    21.3,216.8 85.2,216.8 85.8,216.7 92,215.8 102.2,213.6 108.2,211.7 111.7,210.4 114.9,208.9 117.7,207.3 118.9,206.4 121.3,204.7    125.4,200.9 131.1,194.8 135.7,190.3 136.1,189.9 136.6,189 136.9,187.9 136.8,186.9 136.6,186.4  "
       class="st0" /><polygon
       id="polygon14"
       points="36.3,95.7 34.5,93.5 31.6,89.4 29.8,85.4 28.9,81.6 28.8,79.7 28.9,77.8 29.8,74.3 31.3,71.2    33.1,68.4 34.1,67.2 36.1,64.8 39.9,60.4 41.3,58.3 42,57 42.9,54.5 42.9,53.3 42.9,52.3 42.3,49.9 40.8,47 38.3,43.7 36.4,41.7    36,41.2 35.4,39.9 35.5,38.5 36.1,37.2 36.5,36.7 37.1,36.2 38.5,35.7 39.8,35.7 41.2,36.3 41.7,36.8 43.8,39 47,43.3 48.7,46.3    49.5,48.3 50,50.3 50.2,52.3 50.3,53.3 50.2,55.1 49.3,58.6 47.9,61.6 46,64.3 45,65.5 43,67.9 39.3,72.3 37.9,74.4 37.1,75.8    36.2,78.4 36.2,79.7 36.2,80.7 36.8,83.1 38,85.9 40.3,89.1 41.8,91 42.3,91.5 42.7,92.9 42.6,94.2 42,95.5 41.5,96 40.9,96.4    39.7,96.9 39.1,96.9 38.3,96.9 36.9,96.2 36.3,95.7 36.3,95.7  "
       class="st0" /><polygon
       id="polygon16"
       points="52.8,96.5 50.9,94.3 48.1,90.2 46.3,86.2 45.4,82.4 45.3,80.6 45.4,78.7 46.2,75.1 47.7,72 49.6,69.2    50.6,68 52.6,65.6 56.3,61.2 57.7,59.1 58.5,57.8 59.3,55.3 59.4,54.1 59.4,53.1 58.8,50.7 57.3,47.9 54.7,44.5 52.9,42.5 52.4,42    51.9,40.7 51.9,39.3 52.5,38 53,37.5 53.6,37 54.9,36.5 56.3,36.5 57.6,37.1 58.2,37.6 60.3,39.8 63.5,44.1 65.2,47.1 65.9,49.1    66.4,51.1 66.7,53.1 66.7,54.1 66.6,55.9 65.8,59.4 64.3,62.4 62.4,65.1 61.5,66.3 59.5,68.8 55.7,73.1 54.3,75.2 53.6,76.6    52.7,79.2 52.6,80.6 52.7,81.5 53.3,83.9 54.5,86.7 56.8,89.9 58.3,91.8 58.8,92.4 59.2,93.7 59.1,95.1 58.5,96.3 57.9,96.9    57.4,97.2 56.2,97.7 55.5,97.7 54.8,97.7 53.3,97 52.8,96.5  "
       class="st0" /><polygon
       id="polygon18"
       points="70.9,96.5 69,94.3 66.2,90.2 64.4,86.2 63.5,82.4 63.4,80.6 63.5,78.7 64.4,75.1 65.8,72 67.7,69.2    68.7,68 70.7,65.6 74.4,61.2 75.8,59.1 76.6,57.8 77.4,55.3 77.5,54.1 77.5,53.1 76.9,50.7 75.4,47.9 72.8,44.5 71,42.5 70.5,42    70,40.7 70,39.3 70.6,38 71.1,37.5 71.7,37 73,36.5 74.4,36.5 75.7,37.1 76.3,37.6 78.4,39.8 81.6,44.1 83.3,47.1 84,49.1    84.5,51.1 84.8,53.1 84.8,54.1 84.7,55.9 83.9,59.4 82.4,62.4 80.6,65.1 79.6,66.3 77.6,68.8 73.8,73.1 72.4,75.2 71.7,76.6    70.8,79.2 70.7,80.6 70.8,81.5 71.4,83.9 72.6,86.7 74.9,89.9 76.4,91.8 76.9,92.4 77.3,93.7 77.2,95.1 76.6,96.3 76.1,96.9    75.5,97.2 74.3,97.7 73.6,97.7 72.9,97.7 71.5,97 70.9,96.5  "
       class="st0" /></g></svg>