<?xml version="1.0" encoding="UTF-8" standalone="no"?>
<svg
   xmlns:dc="http://purl.org/dc/elements/1.1/"
   xmlns:cc="http://creativecommons.org/ns#"
   xmlns:rdf="http://www.w3.org/1999/02/22-rdf-syntax-ns#"
   xmlns:svg="http://www.w3.org/2000/svg"
   xmlns="http://www.w3.org/2000/svg"
   height="16"
   width="16"
   version="1.1"
   id="svg3470"
   x="0px"
   y="0px"
   viewBox="-101 103.6 15.999999 15.999999"
   xml:space="preserve"><metadata
     id="metadata22"><rdf:RDF><cc:Work
         rdf:about=""><dc:format>image/svg+xml</dc:format><dc:type
           rdf:resource="http://purl.org/dc/dcmitype/StillImage" /><dc:title></dc:title></cc:Work></rdf:RDF></metadata><defs
     id="defs20" /><style
     type="text/css"
     id="style3">
	.st0{fill:#4D4D4D;}
</style><g
     transform="matrix(0.35164831,0,0,0.35164831,-65.483521,67.169234)"
     id="g6"><path
       style="fill:#4d4d4d"
       class="st0"
       d="m -57.1,125.1 -0.3,-0.5 -0.7,-0.8 -0.8,-0.7 -0.9,-0.6 -0.5,-0.2 -0.5,-0.2 -1,-0.2 -0.5,0 0,0 0,0 -0.3,0 -0.6,0.1 -0.9,0.2 -1.2,0.5 -1.1,0.7 -0.5,0.4 -0.5,0.4 -0.9,1 -0.8,1.1 -0.6,1.2 -0.3,0.7 -0.2,0.5 0,0 -0.2,0.7 -0.2,1.5 0,0.7 0,0 0,0 0,0.5 0.1,1.1 0.3,1 0.4,1 0.2,0.5 0.3,0.4 0.7,0.8 0.8,0.7 1,0.6 0.5,0.2 0.1,-0.3 -0.1,0.3 0.5,0.2 1,0.2 0.5,0 0,0 0,0 0,0 0.3,0 0.6,-0.1 0.9,-0.2 1.2,-0.5 1.1,-0.7 0.5,-0.4 0.5,-0.4 0.9,-1 0.8,-1.1 0.6,-1.2 0.3,-0.7 0,0 0,0 0.1,-0.4 0.2,-0.8 0.2,-0.8 0.1,-0.8 0,-0.4 0,-0.1 0,-0.5 -0.1,-1.1 -0.3,-1 -0.4,-1 -0.3,-0.5 0,0 z m -10.5,6.5 0,-0.6 0.2,-1.3 0.2,-0.7 0,0 0,0 0,0 0.2,-0.5 0.5,-1 0.6,-0.8 0.6,-0.7 0.3,-0.3 0.3,-0.3 0.7,-0.4 0.7,-0.3 0.6,-0.1 0.3,0 0,0 0.2,0 0.4,0.1 0.2,0.1 0.3,0.1 0.5,0.3 0.4,0.4 0.4,0.5 0.2,0.3 0.2,0.3 0.3,0.7 0.2,0.7 0.1,0.8 0,0.4 0,0.1 0,0.6 -0.2,1.3 -0.2,0.7 0,0 0,0 0,0 -0.2,0.5 -0.5,1 -0.6,0.8 -0.6,0.7 -0.3,0.3 -0.3,0.3 -0.7,0.4 -0.7,0.3 -0.6,0.1 -0.3,0 0,0 -0.2,0 -0.4,-0.1 -0.2,-0.1 -0.2,-0.1 -0.5,-0.3 -0.4,-0.4 -0.4,-0.5 -0.2,-0.3 -0.2,-0.3 -0.3,-0.7 -0.2,-0.8 -0.1,-0.8 0,-0.4 -0.1,0 -0.3,0 0.3,0 0,0 z"
       id="path8" /><polygon
       style="fill:#4d4d4d"
       class="st0"
       points="-62,120.9 -62.1,120.5 -62.2,120.4 -62.4,120.3 -62.7,120.1 -62.9,120.1 -96.3,120.1 -96.5,120.1 -96.8,120.3 -96.9,120.4 -97,120.5 -97.2,120.9 -97.2,121 -97.2,122.9 -97,125.5 -96.9,127.2 -96.7,128.9 -96.4,130.5 -96,132.1 -95.5,133.6 -95.2,134.3 -94.9,135.1 -94.3,136.5 -93.5,137.8 -92.6,139.1 -92.1,139.8 -67.1,139.8 -66.6,139.1 -65.6,137.7 -64.8,136.3 -64.1,134.8 -63.8,134 -63.8,134 -63.5,133.3 -63.1,131.8 -62.7,130.3 -62.4,128.8 -62.2,127.1 -62.1,125.5 -62,122.9 -62,121 "
       id="polygon10" /><polygon
       style="fill:#4d4d4d"
       class="st0"
       points="-100.2,141.1 -100.4,141.3 -100.5,141.4 -100.5,141.6 -100.5,141.8 -100.5,142.1 -100.4,142.3 -100.3,142.4 -99.2,143.6 -97.8,145.1 -96.7,146.1 -96.1,146.6 -95.8,146.8 -95.1,147.2 -94.3,147.6 -93.4,147.9 -92.4,148.2 -91.3,148.5 -89.3,148.9 -87.7,149.1 -87.6,149.1 -71.5,149.1 -71.3,149.1 -69.8,148.8 -67.2,148.3 -65.7,147.8 -64.8,147.5 -64,147.1 -63.3,146.7 -63,146.5 -62.4,146 -61.4,145.1 -59.9,143.6 -58.8,142.4 -58.7,142.3 -58.5,142.1 -58.5,141.8 -58.5,141.6 -58.6,141.4 -58.6,141.4 -58.6,141.3 -58.8,141.1 -59,141 -59.3,140.9 -59.4,140.9 -99.6,140.9 -99.8,140.9 -100,141 "
       id="polygon12" /><polygon
       style="fill:#4d4d4d"
       class="st0"
       points="-84.6,111.8 -84.3,111.5 -83.8,110.9 -82.9,109.8 -82.5,109.2 -82.3,108.9 -82.1,108.3 -82.1,108 -82.1,107.7 -82.3,107.1 -82.6,106.4 -83.3,105.6 -83.7,105.1 -83.9,104.9 -84,104.6 -84,104.3 -83.8,103.9 -83.7,103.8 -83.6,103.7 -83.2,103.6 -82.9,103.6 -82.6,103.7 -82.4,103.8 -81.9,104.4 -81.1,105.5 -80.7,106.2 -80.5,106.7 -80.3,107.2 -80.3,107.7 -80.3,108 -80.3,108.4 -80.5,109.3 -80.9,110.1 -81.3,110.7 -81.6,111.1 -82.1,111.7 -83,112.8 -83.4,113.3 -83.6,113.6 -83.8,114.3 -83.8,114.6 -83.8,114.9 -83.7,115.5 -83.3,116.2 -82.8,117 -82.4,117.5 -82.3,117.6 -82.2,117.9 -82.2,118.3 -82.3,118.6 -82.5,118.7 -82.6,118.8 -82.9,118.9 -83.1,118.9 -83.3,118.9 -83.6,118.8 -83.8,118.6 -83.8,118.6 -83.8,118.6 -84.2,118.1 -84.9,117.1 -85.4,116.1 -85.6,115.1 -85.7,114.6 -85.6,114.2 -85.4,113.3 -85,112.5 "
       id="polygon14" /><polygon
       style="fill:#4d4d4d"
       class="st0"
       points="-80.4,112 -80.2,111.7 -79.7,111.1 -78.7,110 -78.4,109.4 -78.2,109.1 -78,108.5 -78,108.2 -78,107.9 -78.1,107.3 -78.5,106.6 -79.1,105.8 -79.6,105.3 -79.7,105.1 -79.8,104.8 -79.8,104.5 -79.7,104.1 -79.6,104 -79.4,103.9 -79.1,103.8 -78.7,103.8 -78.4,103.9 -78.3,104 -77.8,104.6 -76.9,105.7 -76.5,106.4 -76.3,106.9 -76.2,107.4 -76.1,107.9 -76.1,108.2 -76.2,108.6 -76.4,109.5 -76.7,110.3 -77.2,110.9 -77.5,111.3 -78,111.9 -78.9,113 -79.2,113.5 -79.4,113.8 -79.6,114.5 -79.7,114.8 -79.7,115.1 -79.5,115.7 -79.2,116.4 -78.6,117.2 -78.2,117.7 -78.1,117.8 -78,118.1 -78,118.5 -78.2,118.8 -78.3,118.9 -78.5,119 -78.8,119.1 -78.9,119.1 -79.1,119.1 -79.5,119 -79.6,118.8 -79.6,118.8 -80.1,118.3 -80.8,117.3 -81.3,116.3 -81.5,115.3 -81.5,114.8 -81.5,114.4 -81.3,113.5 -80.9,112.7 "
       id="polygon16" /><polygon
       style="fill:#4d4d4d"
       class="st0"
       points="-75.9,112 -75.6,111.7 -75.1,111.1 -74.2,110 -73.8,109.4 -73.7,109.1 -73.4,108.5 -73.4,108.2 -73.4,107.9 -73.6,107.3 -73.9,106.6 -74.6,105.8 -75.1,105.3 -75.2,105.1 -75.3,104.8 -75.3,104.5 -75.2,104.1 -75,104 -74.9,103.9 -74.5,103.8 -74.2,103.8 -73.9,103.9 -73.7,104 -73.2,104.6 -72.4,105.7 -72,106.4 -71.8,106.9 -71.6,107.4 -71.6,107.9 -71.6,108.2 -71.6,108.6 -71.8,109.5 -72.2,110.3 -72.6,110.9 -72.9,111.3 -73.4,111.9 -74.3,113 -74.7,113.5 -74.9,113.8 -75.1,114.5 -75.1,114.8 -75.1,115.1 -75,115.7 -74.6,116.4 -74.1,117.2 -73.7,117.7 -73.6,117.8 -73.5,118.1 -73.5,118.5 -73.7,118.8 -73.8,118.9 -73.9,119 -74.2,119.1 -74.4,119.1 -74.6,119.1 -74.9,119 -75.1,118.8 -75.1,118.8 -75.5,118.3 -76.2,117.3 -76.7,116.3 -76.9,115.3 -77,114.8 -76.9,114.4 -76.7,113.5 -76.4,112.7 "
       id="polygon18" /></g></svg>